HIERARCHY
ROOT Hips
{
	OFFSET 0.00000 0.00000 0.00000
	CHANNELS 6 Xposition Yposition Zposition Yrotation Zrotation Xrotation 
	JOINT Lumbar
	{
		OFFSET 0 0 0
		CHANNELS 3 Zrotation Xrotation Yrotation
		JOINT Neck
		{
			OFFSET 0.00 0.2701 0.00
			CHANNELS 3 Zrotation Xrotation Yrotation
			End Site
			{
				OFFSET 0.00 0.1379 0.00
			}
		}
		JOINT RightShoulder
		{
			OFFSET 0.0119 0.2289 0.1181
			CHANNELS 3 Zrotation Xrotation Yrotation
			JOINT RightElbow
			{
				OFFSET 0.00 -0.1475 0.00
				CHANNELS 2 Zrotation Yrotation
				JOINT RightWrist
				{
					OFFSET 0.00 -0.1605 0.00
					CHANNELS 2 Zrotation Xrotation
					End Site
					{
						OFFSET 0.0040 -0.1068 0.0006
					}
				}
			}
		}
		JOINT LeftShoulder
		{
			OFFSET 0.0119 0.2289 -0.1181
			CHANNELS 3 Zrotation Xrotation Yrotation
			JOINT LeftElbow
			{
				OFFSET 0.00 -0.1475 0.00
				CHANNELS 2 Zrotation Yrotation
				JOINT LeftWrist
				{
					OFFSET 0.00 -0.1605 0.00
					CHANNELS 2 Zrotation Xrotation
					End Site
					{
						OFFSET 0.0040 -0.1068 -0.0006
					}
				}
			}
		}
	}
	JOINT RightHip
	{
		OFFSET 0.0316 -0.0424 0.0458
		CHANNELS 3 Zrotation Xrotation Yrotation
		JOINT RightKnee
		{
			OFFSET 0.00 -0.2438 0.00
			CHANNELS 1 Zrotation
			JOINT RightAnkle
			{
				OFFSET 0.00 -0.2449 0.00
				CHANNELS 3 Zrotation Xrotation Yrotation
				End Site
				{
					OFFSET 0.1237 -0.0542 0.0051
				}
			}
		}
	}
	JOINT LeftHip
	{
		OFFSET 0.0316 -0.0424 -0.0458
		CHANNELS 3 Zrotation Xrotation Yrotation
		JOINT LeftKnee
		{
			OFFSET 0.00 -0.2438 0.00
			CHANNELS 1 Zrotation
			JOINT LeftAnkle
			{
				OFFSET 0.00 -0.2449 0.00
				CHANNELS 3 Zrotation Xrotation Yrotation
				End Site
				{
					OFFSET 0.1237 -0.0542 -0.0051
				}
			}
		}
	}
}
MOTION
Frames: 28
Frame Time: 0.02
5e-05 -6e-05 0.00024 -536.99571 -42.51492 -0.31274 49.26877 1.6137 -7.18205 9.85814 -3.89297 -0.36593 -12.88782 -8.8424 -2.90114 34.24235 93.54726 5.74528 1.32585 11.78022 6.97562 -3.22629 44.64193 -92.52134 4.91451 -1.46258 42.82726 -0.25998 -4.0433 -19.23399 -6.71161 -4.84261 -3.21893 48.35771 3.89807 5.16349 -25.22397 -6.17066 2.51565 1.90354
0.0003 -5e-05 7e-05 -537.27653 -42.46786 -0.38548 49.27564 1.6174 -7.14864 9.47902 -3.63782 -0.3666 -13.21587 -8.90544 -2.76697 34.20741 93.43447 5.68435 1.31513 9.28239 7.59933 -3.73753 44.52455 -93.68413 5.67637 -1.48901 42.82718 -0.26897 -4.27059 -19.2555 -6.68604 -4.80467 -3.19348 48.31479 3.89378 4.98919 -25.22402 -6.17448 2.56078 1.92914
0.00055 -4e-05 -0.0001 -537.5567 -42.42089 -0.45805 49.28248 1.62116 -7.11531 9.10053 -3.38322 -0.36731 -13.54332 -8.96813 -2.63413 34.17236 93.32188 5.62349 1.30446 6.78899 8.21975 -4.24327 44.40762 -94.85144 6.43934 -1.5164 42.82713 -0.27792 -4.49728 -19.27696 -6.66053 -4.76681 -3.16809 48.27199 3.88951 4.81539 -25.22405 -6.17831 2.6058 1.95468
0.0008 -3e-05 -0.00026 -537.8367 -42.37396 -0.53058 49.28933 1.62486 -7.082 8.7225 -3.12882 -0.36798 -13.87044 -9.03096 -2.5004 34.13751 93.20943 5.56275 1.29377 4.29831 8.84118 -4.75198 44.29061 -96.01251 7.19961 -1.54299 42.82706 -0.28688 -4.72389 -19.2984 -6.63504 -4.72899 -3.14271 48.22919 3.88523 4.64163 -25.22409 -6.18212 2.6508 1.98021
0.00105 -3e-05 -0.00043 -538.11727 -42.32697 -0.60326 49.29618 1.62849 -7.04861 8.34404 -2.87397 -0.3686 -14.19798 -9.09417 -2.36535 34.1028 93.0968 5.50192 1.28305 1.80447 9.46678 -5.26856 44.17317 -97.16453 7.95692 -1.56802 42.82694 -0.29588 -4.95108 -19.31989 -6.60949 -4.69111 -3.11728 48.18627 3.88092 4.46736 -25.22415 -6.18593 2.69592 2.00581
0.0013 -2e-05 -0.0006 -538.39657 -42.28006 -0.67559 49.30301 1.6325 -7.01538 7.96551 -2.6199 -0.36951 -14.52521 -9.15574 -2.23734 34.067 92.98428 5.44096 1.27247 -0.68777 10.07649 -5.75204 44.05731 -98.36299 8.73139 -1.60024 42.82705 -0.30475 -5.17669 -19.34128 -6.58406 -4.65329 -3.09196 48.14374 3.87676 4.29457 -25.22412 -6.18979 2.74072 2.03123
0.00154 -1e-05 -0.00076 -538.67814 -42.23303 -0.74855 49.30988 1.63573 -6.98192 7.58757 -2.36456 -0.36983 -14.85277 -9.22063 -2.09441 34.0336 92.87175 5.38048 1.26159 -3.18057 10.71649 -6.29909 43.93832 -99.47075 9.47199 -1.61854 42.82668 -0.31385 -5.40523 -19.36283 -6.55842 -4.61539 -3.06645 48.10046 3.8723 4.11904 -25.22427 -6.19354 2.78611 2.05697
0.00179 0 -0.00093 -538.95756 -42.18612 -0.82092 49.31673 1.63972 -6.94858 7.20901 -2.11036 -0.37068 -15.1799 -9.28227 -1.96687 33.99767 92.75907 5.31932 1.25103 -5.6727 11.33037 -6.79208 43.82237 -100.6547 10.24106 -1.64859 42.82679 -0.32274 -5.63105 -19.38425 -6.53298 -4.57757 -3.04112 48.0579 3.86811 3.94595 -25.22425 -6.19739 2.83097 2.08242
0.00205 1e-05 -0.0011 -539.23475 -42.13927 -0.89263 49.32348 1.6445 -6.91572 6.82975 -1.85752 -0.37226 -15.50719 -9.34071 -1.85176 33.95982 92.64677 5.25821 1.2407 -8.16624 11.90515 -7.2004 43.70948 -101.9633 11.05684 -1.69752 42.82737 -0.33138 -5.85375 -19.40548 -6.50777 -4.5398 -3.01597 48.01608 3.86426 3.77611 -25.22405 -6.20137 2.87516 2.10751
0.00228 2e-05 -0.00127 -539.52594 -42.09181 -0.96834 49.33059 1.64433 -6.88109 6.45465 -1.59674 -0.36989 -15.83564 -9.4199 -1.64597 33.93654 92.53398 5.19945 1.22856 -10.65853 12.68333 -8.03992 43.57704 -102.64967 11.63976 -1.65145 42.82487 -0.3415 -6.09503 -19.42772 -6.48117 -4.50158 -2.98969 47.96958 3.8585 3.58836 -25.22497 -6.20463 2.92312 2.13467
0.00257 3e-05 -0.00143 -539.78684 -42.04582 -1.03548 49.33709 1.65481 -6.84957 6.07079 -1.35285 -0.37568 -16.16026 -9.45382 -1.64367 33.88032 92.42117 5.13408 1.22056 -13.14852 13.04628 -8.00584 43.48707 -104.58717 12.69062 -1.79697 42.82912 -0.34845 -6.29666 -19.44787 -6.45757 -4.46443 -2.96584 47.93324 3.85671 3.4379 -25.22348 -6.20942 2.96315 2.15746
0.00305 8e-05 -0.00155 -539.97004 -42.00232 -1.07995 49.3406 1.69311 -6.83174 5.66241 -1.15472 -0.40553 -16.48433 -9.37398 -2.11215 33.75082 92.32768 5.0672 1.22269 -15.67286 12.14048 -5.24468 43.50455 -110.51095 15.23453 -2.54807 42.85006 -0.34702 -6.39228 -19.46204 -6.44164 -4.42917 -2.94826 47.92257 3.86659 3.39503 -25.21556 -6.21827 2.98112 2.16813
0.0036 0.00015 -0.00167 -540.12175 -41.96052 -1.1156 49.34366 1.74236 -6.81608 5.24541 -0.97383 -0.44329 -16.80162 -9.24641 -2.80564 33.58509 92.23805 4.99291 1.23021 -18.18631 10.83923 -1.66169 43.56624 -117.59527 18.21183 -3.47785 42.87812 -0.34237 -6.4476 -19.47416 -6.42882 -4.39517 -2.9332 47.92251 3.88032 3.38877 -25.20518 -6.22868 2.99115 2.17442
0.00412 0.00021 -0.00179 -540.28442 -41.919 -1.15482 49.34789 1.7875 -6.79604 4.83251 -0.78526 -0.47632 -17.11695 -9.13428 -3.44777 33.42471 92.12443 4.90817 1.23478 -20.67963 9.80656 1.32256 43.61379 -123.77896 20.85158 -4.27239 42.90418 -0.33894 -6.51953 -19.48738 -6.41493 -4.36128 -2.91724 47.91909 3.89177 3.36214 -25.19582 -6.23846 3.00502 2.18279
0.00463 0.00027 -0.0019 -540.46147 -41.87323 -1.19613 49.34839 1.82897 -6.79031 4.41841 -0.59544 -0.51406 -17.45812 -9.04982 -3.8573 33.31105 92.07392 4.87219 1.23734 -23.28332 8.40812 5.2359 43.63683 -131.51323 24.07671 -5.29104 42.92512 -0.33638 -6.59851 -19.49988 -6.39961 -4.32452 -2.90022 47.90962 3.9054 3.35075 -25.18689 -6.2479 3.018 2.19082
0.00517 0.00033 -0.00203 -540.60071 -41.8365 -1.23068 49.35613 1.88073 -6.7553 4.00529 -0.41307 -0.54398 -17.73811 -8.8947 -4.82741 33.09166 91.93148 4.74488 1.25053 -25.64888 7.66501 7.43836 43.72073 -136.32726 26.19663 -5.89072 42.95832 -0.33142 -6.65335 -19.5134 -6.388 -4.29402 -2.88603 47.91516 3.91546 3.31704 -25.17647 -6.25842 3.03083 2.19846
0.00576 0.00039 -0.00219 -540.64665 -41.8263 -1.25149 49.38762 1.95759 -6.63896 3.5927 -0.24074 -0.54939 -17.90355 -8.57541 -7.07292 32.58904 91.18424 4.26042 1.24424 -27.40542 8.94204 4.4531 43.96718 -132.48577 25.056 -5.2408 43.02451 -0.31931 -6.65082 -19.53034 -6.38587 -4.28063 -2.87899 47.96045 3.91435 3.20586 -25.1626 -6.27176 3.0461 2.20659
0.00638 0.00045 -0.00236 -540.65493 -41.82479 -1.26522 49.42568 2.04451 -6.49322 3.18245 -0.07672 -0.54684 -18.00023 -8.18616 -9.89978 31.98207 90.39599 3.70134 1.25503 -28.91264 10.87273 -0.23728 44.27208 -125.71769 22.80508 -4.17138 43.10265 -0.30518 -6.62558 -19.54834 -6.38734 -4.27348 -2.87472 48.02035 3.90952 3.07209 -25.14731 -6.28611 3.06131 2.21438
0.007 0.00051 -0.00253 -540.67829 -41.818 -1.2805 49.45844 2.12727 -6.36072 2.77359 0.08726 -0.54862 -18.09076 -7.8124 -12.62284 31.42198 89.87347 3.25009 1.29209 -30.50578 12.42758 -3.97062 44.54702 -120.49694 21.13227 -3.32703 43.17473 -0.29277 -6.61105 -19.56577 -6.38715 -4.26339 -2.86922 48.07295 3.9067 2.95332 -25.13265 -6.29985 3.0759 2.22197
0.00757 0.00056 -0.00269 -540.70937 -41.81688 -1.30286 49.50126 2.2088 -6.22821 2.35299 0.2677 -0.54773 -18.32902 -7.49316 -14.74059 30.85973 88.36423 2.4984 1.19516 -32.22019 14.29455 -8.42922 44.83888 -114.41871 19.17267 -2.34669 43.24968 -0.27671 -6.59318 -19.5835 -6.38721 -4.25375 -2.86369 48.12863 3.90293 2.81637 -25.11797 -6.31421 3.0929 2.23087
0.00824 0.00063 -0.00287 -540.71553 -41.80601 -1.30849 49.52433 2.295 -6.08945 1.95885 0.41091 -0.55032 -18.25579 -7.06021 -18.17394 30.28166 88.82977 2.33996 1.36937 -33.61534 15.68014 -11.81164 45.1075 -109.39192 17.53043 -1.54374 43.32145 -0.26799 -6.57779 -19.60089 -6.38754 -4.24467 -2.85884 48.18133 3.8999 2.71077 -25.103 -6.32756 3.10505 2.23707
0.00918 0.00072 -0.00312 -540.66511 -41.76572 -1.27317 49.49407 2.39259 -5.93411 1.6261 0.4634 -0.5652 -17.22976 -6.19266 -25.79904 29.65178 95.37722 3.96829 2.39285 -34.25433 15.50347 -11.63868 45.30868 -108.2009 17.13077 -1.36785 43.38106 -0.27853 -6.57152 -19.61717 -6.38802 -4.23549 -2.85527 48.22115 3.90262 2.70314 -25.08772 -6.33731 3.10319 2.2354
0.01022 0.00083 -0.00339 -540.59056 -41.71535 -1.22061 49.44311 2.49428 -5.77468 1.32218 0.47676 -0.58368 -15.9112 -5.23732 -34.60543 29.01614 103.80666 6.17353 3.67061 -34.56853 14.83305 -10.35272 45.48223 -108.13163 17.07279 -1.37902 43.43709 -0.29681 -6.56933 -19.63307 -6.38859 -4.22668 -2.85225 48.25758 3.90573 2.72677 -25.07217 -6.34609 3.0966 2.23113
0.01121 0.00092 -0.00366 -540.52524 -41.66982 -1.17374 49.39987 2.59343 -5.62139 1.01214 0.50171 -0.59999 -14.80088 -4.41494 -42.39809 28.40532 110.95749 8.02715 4.76126 -34.98937 14.4416 -9.69771 45.66093 -107.38984 16.78928 -1.27908 43.49506 -0.31258 -6.56763 -19.64913 -6.38894 -4.21778 -2.84891 48.29624 3.90677 2.73175 -25.05668 -6.35567 3.09263 2.22838
0.0122 0.00102 -0.00391 -540.46579 -41.62354 -1.13582 49.36424 2.69589 -5.44903 0.67196 0.55311 -0.61827 -13.37818 -3.20429 -52.18587 27.69682 119.85811 10.24917 6.14814 -35.57489 13.85198 -8.59935 45.87279 -107.19744 16.74818 -1.26885 43.55223 -0.32407 -6.55526 -19.66534 -6.39018 -4.20877 -2.84598 48.33259 3.91551 2.75379 -25.04145 -6.36378 3.08672 2.22419
0.01322 0.00112 -0.00421 -540.38902 -41.57627 -1.07507 49.30744 2.79219 -5.31576 0.40232 0.53946 -0.63345 -12.52759 -2.77354 -58.13952 27.19211 125.60677 11.85011 6.9863 -35.74296 13.53721 -8.10539 46.00849 -106.21065 16.31744 -1.12912 43.60994 -0.34626 -6.56635 -19.68104 -6.38956 -4.19998 -2.84228 48.37264 3.90859 2.74918 -25.02557 -6.37471 3.08369 2.22237
0.01429 0.0012 -0.00464 -540.26943 -41.52889 -0.95707 49.19978 2.87121 -5.29153 0.31229 0.36223 -0.63891 -13.41199 -4.59183 -52.80738 27.2491 121.80727 11.52381 6.17793 -34.8418 14.2036 -9.82385 45.93792 -102.37736 14.56175 -0.52335 43.67058 -0.39669 -6.64113 -19.69626 -6.38373 -4.192 -2.83632 48.42457 3.85605 2.65218 -25.00871 -6.39364 3.09035 2.22819
0.01537 0.00128 -0.00514 -540.13375 -41.48067 -0.81641 49.07088 2.94371 -5.30668 0.29373 0.11967 -0.64124 -14.86521 -7.18233 -43.65805 27.51212 114.84599 10.56617 4.82217 -33.53128 15.14124 -12.12894 45.79179 -97.79081 12.43776 0.20553 43.73152 -0.45743 -6.73916 -19.71081 -6.37605 -4.18416 -2.82957 48.48 3.78801 2.52861 -24.99127 -6.41546 3.10011 2.23648
